<!DOCTYPE svg PUBLIC "-//W3C//DTD SVG 20010904//EN" "http://www.w3.org/TR/2001/REC-SVG-20010904/DTD/svg10.dtd">
<svg version="1.0" xmlns="http://www.w3.org/2000/svg" width="615px" height="608px" viewBox="0 0 6150 6080" preserveAspectRatio="xMidYMid meet">
<g id="layer1" fill="#191919" stroke="none">
 <path d="M523 4394 c-15 -39 97 -597 167 -837 101 -344 193 -534 313 -644 68 -61 118 -77 221 -71 85 6 114 20 151 77 39 58 44 119 34 455 -11 385 0 632 33 732 l22 67 -40 35 c-80 70 -193 94 -247 52 -56 -44 -87 -195 -87 -426 l0 -131 -102 -7 c-57 -4 -118 -10 -135 -13 -43 -7 -46 0 -72 232 -43 370 -56 412 -149 458 -69 35 -101 41 -109 21z m164 -125 c18 -35 29 -102 56 -317 25 -200 38 -277 49 -289 14 -13 32 -14 159 -3 85 7 149 17 157 24 9 9 14 62 17 187 4 232 31 337 92 370 31 17 100 -1 157 -39 44 -30 45 -37 27 -107 -20 -75 -33 -375 -26 -610 12 -439 11 -467 -16 -522 -45 -91 -161 -120 -267 -67 -49 24 -131 103 -154 148 -6 12 6 2 26 -21 61 -69 135 -81 172 -26 26 40 30 192 10 428 -13 153 -20 193 -34 207 -16 15 -26 15 -152 1 -186 -21 -180 -12 -146 -188 29 -146 66 -276 97 -337 11 -21 17 -38 14 -38 -4 0 -31 51 -60 113 -96 199 -189 516 -259 887 -48 254 -54 289 -48 295 3 3 28 -8 56 -23 38 -21 57 -40 73 -73z m428 -854 c24 -281 19 -370 -23 -408 -16 -14 -20 -14 -51 1 -77 37 -150 206 -194 450 l-24 127 136 15 c88 10 137 11 138 5 2 -5 9 -91 18 -190z"/>
 <path d="M3769 4336 c-95 -34 -130 -90 -156 -248 l-17 -101 -35 44 c-108 133 -241 246 -326 276 -16 6 -39 15 -50 19 -30 11 -136 4 -175 -12 -46 -20 -65 -38 -100 -99 -52 -91 -63 -195 -57 -529 l5 -289 -27 49 c-68 124 -174 247 -264 304 -52 33 -55 38 -61 85 -9 67 9 313 25 348 9 20 9 33 1 51 -15 33 -87 74 -153 87 -102 20 -147 -18 -185 -158 -21 -79 -30 -402 -15 -607 6 -88 9 -161 7 -164 -3 -2 -17 20 -32 50 -62 123 -204 282 -288 322 l-38 18 5 182 c3 104 10 197 17 218 11 32 11 40 -4 63 -21 32 -105 73 -167 81 -36 5 -50 1 -79 -18 -115 -77 -135 -364 -74 -1064 8 -93 15 -221 17 -284 l2 -114 30 -8 c17 -4 55 -5 85 -2 163 19 219 100 204 296 -4 48 -4 88 -1 88 3 0 16 -19 30 -43 35 -59 107 -123 153 -136 48 -13 60 -13 106 0 30 8 42 19 57 49 23 48 11 51 -36 10 -26 -23 -43 -30 -76 -30 -23 0 -49 5 -57 10 -12 8 -10 10 8 10 86 0 102 88 47 250 -45 133 -154 295 -228 341 -31 18 -32 18 -51 -1 -20 -19 -20 -21 18 -172 21 -84 55 -195 76 -246 21 -52 36 -91 33 -88 -3 3 -20 27 -37 53 -30 46 -66 73 -53 40 3 -9 -1 -18 -9 -21 -11 -4 -14 -28 -12 -124 2 -108 0 -121 -23 -162 -32 -58 -92 -90 -169 -90 l-57 0 -7 113 c-4 61 -16 222 -26 357 -45 573 -34 797 43 911 22 32 27 34 79 34 44 0 65 -6 104 -31 27 -17 48 -37 46 -45 -17 -72 -22 -140 -20 -274 l3 -158 90 -77 c101 -86 175 -177 237 -294 36 -68 47 -81 68 -80 23 0 25 3 23 39 -2 22 -7 112 -13 200 -24 383 -2 613 66 694 20 25 34 31 64 31 42 0 98 -21 141 -52 23 -17 26 -25 18 -40 -23 -43 -38 -378 -18 -420 5 -13 30 -36 55 -52 96 -61 204 -188 276 -327 27 -53 37 -64 58 -63 23 0 25 3 24 49 -1 28 -5 160 -9 295 -11 362 11 486 99 568 49 45 92 58 162 48 92 -12 222 -99 320 -213 94 -110 94 -113 -1 -16 -134 135 -208 164 -266 102 -15 -17 -32 -47 -36 -67 -4 -20 -8 -152 -8 -292 0 -298 2 -305 68 -295 23 3 54 8 70 11 15 3 27 1 27 -5 0 -5 -27 -15 -59 -22 -100 -19 -102 -23 -89 -224 7 -113 15 -178 24 -192 17 -28 45 -29 189 -9 85 13 104 13 132 1 43 -18 66 -69 67 -150 l1 -59 -130 -18 c-158 -23 -344 -27 -403 -9 -24 7 -59 27 -79 44 -33 31 -35 37 -45 127 -12 118 -25 133 -75 90 -26 -23 -43 -30 -76 -30 -23 0 -49 5 -57 10 -12 8 -10 10 10 10 14 0 36 7 48 16 19 13 22 24 22 85 0 44 -8 92 -21 132 -48 143 -158 310 -235 358 -36 22 -37 22 -50 4 -19 -25 -18 -33 11 -155 33 -135 70 -250 106 -322 15 -32 26 -58 25 -58 -2 0 -19 24 -37 53 -53 85 -59 90 -80 71 -15 -13 -16 -30 -12 -133 7 -139 -2 -175 -57 -225 -40 -36 -92 -51 -160 -44 l-35 3 -5 115 c-7 155 -24 146 -28 -15 l-3 -125 28 -11 c38 -14 145 -1 196 25 23 11 54 39 69 61 26 38 27 46 28 158 0 64 3 117 8 117 4 -1 24 -25 45 -55 52 -75 113 -110 190 -109 45 1 62 6 81 23 l23 22 10 -90 c12 -103 27 -132 82 -160 91 -47 226 -50 506 -13 l130 17 3 59 c5 93 -14 162 -51 190 -48 37 -76 40 -208 21 -85 -12 -124 -14 -131 -7 -10 10 -17 75 -31 284 l-5 67 47 10 c25 5 61 13 79 16 36 7 59 41 48 71 -6 15 -17 16 -90 10 l-83 -7 -6 77 c-10 112 -8 306 3 403 9 84 27 127 57 138 44 17 178 -96 290 -245 l60 -79 6 -179 c4 -98 16 -287 27 -419 12 -132 20 -278 18 -323 -3 -102 3 -107 105 -99 127 11 198 66 213 165 4 26 -1 168 -10 315 -22 341 -32 709 -20 729 8 14 22 11 109 -24 173 -68 250 -71 308 -11 44 47 85 197 56 207 -8 3 -76 28 -153 56 -76 28 -175 60 -220 70 -92 23 -214 25 -267 6z m286 -46 c39 -11 127 -41 198 -67 145 -54 146 -56 103 -148 -47 -101 -103 -107 -301 -33 -170 65 -159 84 -152 -257 4 -148 14 -375 23 -503 19 -274 16 -309 -32 -362 -35 -39 -64 -53 -137 -65 -71 -12 -77 -5 -77 93 0 48 -9 193 -20 322 -11 129 -22 309 -26 400 -3 91 -7 174 -9 186 -3 11 -21 42 -41 69 -21 27 -32 45 -25 41 16 -10 60 -15 65 -7 3 4 10 44 16 90 21 154 68 234 155 261 44 14 180 4 260 -20z m-1405 -787 c95 -144 145 -317 106 -368 -50 -66 -152 123 -217 405 -11 47 -23 94 -26 105 -9 35 85 -64 137 -142z m-741 87 c116 -138 210 -360 182 -433 -18 -46 -40 -45 -82 2 -53 59 -137 292 -164 449 -9 54 7 50 64 -18z"/>
 <path d="M4609 4336 c-93 -33 -129 -88 -155 -238 -21 -121 -14 -521 15 -858 11 -129 21 -271 21 -315 0 -50 5 -86 12 -93 27 -27 173 -7 230 31 18 12 43 42 56 67 27 54 28 115 7 405 -18 252 -30 644 -21 678 3 15 12 27 19 27 7 0 53 -16 102 -36 166 -65 231 -66 295 -5 38 36 55 76 67 158 4 32 2 44 -8 47 -8 3 -76 28 -153 56 -76 28 -175 60 -220 70 -92 23 -214 25 -267 6z m286 -46 c39 -11 127 -41 198 -67 102 -38 127 -51 127 -67 0 -40 -25 -100 -56 -132 -51 -55 -88 -50 -354 51 -32 13 -36 12 -53 -8 -17 -20 -18 -41 -13 -272 2 -137 12 -364 22 -504 19 -287 16 -322 -38 -378 -32 -33 -62 -46 -131 -58 -71 -12 -77 -4 -77 88 0 45 -10 195 -22 332 -26 304 -31 745 -9 840 24 108 72 171 148 196 42 13 178 2 258 -21z"/>
 <path d="M131 4313 c-40 -21 -68 -70 -87 -152 -22 -91 -18 -614 6 -901 11 -129 20 -274 20 -323 0 -86 0 -88 28 -98 43 -17 164 3 214 36 64 43 80 92 76 235 -2 66 -1 116 2 112 3 -4 23 -33 45 -66 81 -121 207 -159 285 -86 29 27 30 32 30 108 0 115 -34 217 -112 334 -66 100 -181 221 -241 253 -25 13 -38 28 -43 49 -8 38 4 279 18 331 22 90 22 91 -14 118 -75 58 -172 79 -227 50z m158 -54 c61 -31 63 -33 56 -63 -25 -118 -33 -402 -12 -428 6 -8 32 -29 57 -45 43 -30 158 -141 198 -193 30 -39 98 -179 116 -239 29 -98 15 -198 -29 -215 -25 -9 -88 -7 -105 4 -12 8 -9 10 12 10 71 0 88 96 43 237 -36 114 -96 213 -179 300 -73 74 -90 82 -110 51 -18 -29 66 -358 120 -473 l14 -30 -17 25 c-34 47 -58 69 -78 72 -19 3 -20 -2 -16 -123 2 -78 -1 -140 -8 -161 -24 -74 -109 -123 -201 -116 l-45 3 -2 75 c-2 41 -13 194 -25 340 -27 318 -31 739 -9 835 37 163 93 197 220 134z m228 -782 c54 -93 103 -226 103 -283 0 -86 -47 -95 -100 -19 -45 65 -86 178 -128 350 -38 156 -41 147 23 85 31 -30 77 -90 102 -133z"/>
 <path d="M5612 4299 c-159 -31 -286 -167 -332 -354 -52 -216 -18 -493 102 -830 28 -77 67 -187 88 -245 l37 -105 79 0 c64 1 86 5 115 23 49 30 73 85 67 156 l-5 56 36 0 c133 0 240 115 290 312 87 337 -35 792 -251 940 -75 52 -137 65 -226 47z m173 -57 c108 -56 213 -222 264 -417 27 -101 47 -296 34 -319 -7 -13 -12 9 -16 82 -10 151 -62 336 -105 375 -26 24 -45 14 -87 -43 -101 -138 -177 -430 -159 -618 8 -86 44 -164 88 -191 55 -34 100 -26 160 28 l29 26 -20 -30 c-12 -16 -29 -38 -40 -47 -27 -25 -104 -58 -136 -58 -16 0 -37 -5 -48 -11 -18 -9 -19 -17 -14 -62 4 -39 2 -60 -12 -87 -23 -45 -93 -82 -148 -78 l-39 3 -68 185 c-146 397 -183 559 -176 770 4 108 10 151 31 212 56 173 171 285 316 307 55 8 92 2 146 -27z m215 -459 c79 -272 27 -594 -106 -649 -30 -13 -38 -13 -64 1 -87 45 -107 240 -49 473 34 137 83 243 143 310 l20 23 19 -48 c11 -26 27 -76 37 -110z"/>
 <path d="M5690 4132 c-42 -22 -94 -98 -117 -167 -21 -66 -29 -318 -13 -413 20 -120 59 -123 95 -6 41 132 122 281 214 394 58 71 62 83 40 119 -44 73 -152 109 -219 73z m97 -23 c15 -5 44 -26 65 -46 l36 -35 -67 -89 c-77 -101 -147 -230 -187 -342 -39 -111 -49 -86 -49 123 0 147 3 172 23 233 26 73 59 119 107 148 35 22 35 22 72 8z"/>
 <path d="M5207 2923 c-16 -19 -41 -99 -53 -173 -4 -25 -10 -135 -13 -244 l-6 -200 -28 43 c-39 59 -80 81 -147 81 -81 -1 -115 -36 -126 -132 -7 -62 13 -282 28 -312 9 -16 18 -18 65 -13 93 10 96 17 88 183 -5 92 -4 148 3 160 10 17 13 16 45 -19 43 -45 67 -113 70 -198 2 -35 6 -70 10 -76 11 -18 83 -16 123 3 61 29 73 57 76 184 l3 112 70 -83 c96 -115 123 -141 135 -134 20 12 9 32 -80 144 -49 63 -90 118 -90 122 0 4 7 41 16 81 23 105 23 298 1 370 -22 74 -72 118 -133 118 -26 0 -46 -6 -57 -17z m101 -29 c25 -18 56 -74 66 -121 7 -29 5 -33 -19 -39 -15 -4 -30 -17 -36 -31 -5 -13 -9 -144 -8 -292 0 -332 -6 -356 -102 -363 l-33 -3 -13 94 c-8 62 -9 99 -3 112 6 10 10 87 10 171 0 246 23 413 62 463 22 29 44 32 76 9z m58 -362 c-10 -128 -25 -120 -26 14 0 66 3 124 7 128 14 14 25 -68 19 -142z m-345 -152 c18 -15 20 -19 8 -20 -20 0 -44 -28 -52 -60 -4 -13 -2 -71 4 -128 13 -130 9 -147 -38 -163 -31 -10 -38 -9 -48 4 -14 20 -38 233 -31 271 3 14 8 37 11 51 13 62 96 88 146 45z"/>
 <path d="M3292 2637 c-61 -35 -75 -127 -47 -333 9 -71 17 -138 18 -149 2 -16 -8 -21 -65 -30 -52 -9 -68 -9 -68 0 0 25 -86 143 -150 206 -119 117 -264 169 -350 124 -29 -15 -57 -72 -62 -129 -3 -28 -4 -27 -42 27 -47 70 -105 123 -160 148 -47 21 -124 25 -149 7 -46 -35 -68 -231 -58 -501 l6 -149 -75 4 c-66 3 -75 1 -78 -16 -6 -29 13 -39 84 -43 37 -2 69 -4 70 -6 1 -1 6 -63 11 -137 l8 -135 62 0 c55 0 66 4 90 28 27 26 28 32 28 127 l0 100 68 0 c52 0 69 4 74 16 9 25 -9 34 -79 41 l-66 6 -6 171 c-4 94 -3 211 2 260 15 140 44 148 125 33 25 -34 65 -98 89 -142 31 -57 49 -80 63 -80 11 -1 32 -9 46 -18 64 -42 182 -51 230 -16 25 18 29 27 29 70 0 90 -37 130 -133 144 -43 7 -47 10 -47 35 0 15 9 38 19 51 l20 24 43 -23 c60 -31 133 -97 202 -181 49 -59 56 -73 47 -90 -6 -11 -11 -46 -11 -79 0 -70 10 -82 74 -89 39 -5 48 -2 70 22 14 15 26 40 26 54 0 38 17 51 70 51 54 0 110 26 128 60 14 27 12 124 -8 289 -9 70 -9 101 0 119 l11 25 29 -28 c37 -36 81 -120 114 -221 l27 -81 -28 -54 c-23 -43 -28 -66 -28 -120 0 -58 4 -71 25 -95 27 -29 105 -68 119 -60 4 3 8 24 8 46 0 25 12 65 32 105 30 61 34 65 59 58 74 -21 242 7 256 43 9 24 -20 28 -73 10 -59 -19 -131 -21 -154 -3 -15 11 -13 18 29 77 83 118 115 185 121 249 5 50 2 64 -17 90 -46 66 -177 86 -260 40 -57 -32 -80 -64 -94 -135 l-12 -59 -33 64 c-72 141 -199 222 -279 178z m134 -56 l22 -17 -24 -23 c-29 -28 -30 -48 -8 -238 23 -192 11 -218 -99 -230 -65 -7 -97 -26 -97 -57 0 -56 -37 -84 -85 -66 -21 8 -25 16 -25 53 0 57 20 75 101 88 97 17 95 11 69 195 -37 266 -14 350 90 321 19 -5 44 -17 56 -26z m479 -24 c81 -46 71 -105 -45 -288 -44 -67 -77 -126 -74 -130 2 -4 -7 -16 -20 -26 -29 -23 -61 -84 -77 -147 -6 -25 -13 -46 -16 -46 -2 0 -15 7 -29 16 -29 20 -54 63 -54 95 0 19 40 122 71 181 6 12 4 20 -5 25 -14 8 -49 103 -41 111 10 10 35 -9 35 -26 0 -10 10 -28 23 -40 21 -20 25 -20 44 -7 30 21 89 113 103 162 21 68 -5 123 -58 123 -21 0 -24 2 -12 10 28 18 113 11 155 -13z m-114 -54 c8 -22 5 -37 -21 -87 -16 -34 -41 -74 -54 -90 l-24 -29 -11 40 c-18 65 1 131 47 170 35 30 50 29 63 -4z m-1416 -51 c35 -23 37 -27 19 -30 -62 -9 -79 -105 -70 -386 5 -157 9 -193 23 -208 15 -17 15 -20 1 -34 -12 -12 -14 -31 -10 -88 5 -85 -11 -126 -57 -145 -60 -26 -65 -18 -74 114 -6 87 -12 124 -24 137 -12 14 -13 21 -4 32 8 10 13 94 14 277 3 270 8 309 46 352 21 25 82 16 136 -21z m416 -33 c22 -11 22 -12 -7 -24 -44 -18 -58 -53 -50 -127 11 -98 24 -134 58 -163 25 -21 40 -26 70 -23 35 3 37 2 21 -10 -29 -22 -109 -10 -186 28 -59 28 -71 39 -93 82 -23 46 -24 51 -9 68 10 11 14 26 10 42 -10 39 12 104 43 128 22 18 36 21 74 17 26 -4 57 -11 69 -18z m62 -217 c31 -27 39 -50 27 -72 -13 -25 -42 -26 -63 -2 -22 24 -48 88 -39 96 10 10 54 -3 75 -22z"/>
 <path d="M1785 2611 c-42 -11 -87 -35 -108 -59 -47 -52 -60 -177 -28 -269 l18 -53 -24 -36 c-14 -19 -30 -33 -36 -30 -7 2 -36 13 -64 22 -34 11 -53 23 -53 33 0 33 -49 118 -88 153 -45 41 -89 53 -160 45 -165 -18 -178 -326 -18 -434 40 -28 57 -33 105 -33 38 0 66 6 88 20 37 22 73 86 73 129 l0 29 48 -12 47 -12 -3 -58 c-3 -48 0 -63 22 -96 27 -42 95 -84 119 -74 9 3 14 20 14 45 0 24 13 64 32 104 32 64 43 75 56 55 9 -14 150 -5 200 13 28 10 40 20 40 33 0 16 -6 18 -35 16 -19 -2 -39 -8 -45 -13 -14 -13 -109 -11 -128 4 -15 11 -11 20 39 92 112 160 140 260 93 326 -34 48 -135 78 -204 60z m135 -51 c92 -47 83 -102 -48 -304 -39 -60 -69 -112 -67 -117 3 -4 -6 -16 -19 -26 -29 -23 -61 -84 -77 -147 -6 -25 -13 -46 -16 -46 -16 0 -58 40 -69 66 -19 45 -8 132 21 164 38 43 55 73 55 98 0 13 4 21 10 17 15 -9 86 70 115 129 44 89 25 166 -42 166 -22 0 -25 2 -13 10 26 17 108 11 150 -10z m-110 -55 c6 -16 5 -35 -2 -57 -13 -36 -72 -133 -87 -142 -24 -15 -32 113 -11 156 14 28 60 68 78 68 7 0 17 -11 22 -25z m-529 -141 c-30 -38 -30 -143 0 -190 24 -39 22 -38 57 -20 15 7 51 19 81 25 45 9 57 9 68 -2 12 -12 12 -16 -1 -27 -13 -10 -19 -10 -31 0 -30 25 -125 -18 -125 -56 0 -34 82 -58 109 -31 11 10 12 8 2 -9 -18 -36 -70 -74 -102 -74 -143 0 -248 217 -168 346 24 40 62 63 102 64 l28 0 -20 -26z m106 -46 c19 -20 53 -86 53 -103 0 -3 -12 -5 -27 -5 -16 -1 -45 -7 -66 -14 -37 -14 -39 -13 -48 11 -19 50 -6 125 24 145 14 8 36 -3 64 -34z m53 -196 c0 -15 -38 -44 -49 -37 -17 10 -13 21 12 33 28 13 37 14 37 4z"/>
 <path d="M705 2512 c-14 -22 -30 -65 -35 -98 -14 -86 -12 -316 5 -526 8 -100 16 -217 17 -258 l3 -75 61 2 c117 3 154 45 154 175 l0 73 19 -30 c36 -60 77 -85 137 -85 73 0 89 23 82 118 -9 119 -88 254 -201 343 -28 23 -52 47 -52 53 0 6 -4 17 -9 24 -9 15 2 186 15 220 6 14 5 31 -1 42 -14 26 -90 60 -133 60 -31 0 -40 -5 -62 -38z m124 -12 c37 -17 42 -23 37 -43 -3 -12 -9 -76 -12 -142 -6 -110 -5 -122 13 -144 19 -23 19 -26 4 -52 -15 -27 -14 -35 12 -136 36 -137 36 -138 12 -138 -19 0 -20 -7 -20 -97 0 -91 -2 -99 -26 -123 -26 -27 -90 -48 -115 -38 -10 4 -14 26 -14 79 0 41 -7 163 -16 272 -17 210 -14 439 6 505 12 41 42 77 63 77 6 0 32 -9 56 -20z m141 -415 c13 -14 21 -25 18 -25 -2 0 -15 11 -28 25 -13 14 -21 25 -18 25 2 0 15 -11 28 -25z m7 -88 c70 -107 104 -230 68 -243 -8 -4 -23 0 -32 7 -32 27 -84 166 -118 314 l-6 29 22 -19 c12 -11 42 -50 66 -88z m103 -73 c40 -81 50 -156 25 -184 -23 -26 -39 -26 -25 -1 26 49 -1 164 -60 265 l-31 51 30 -34 c16 -18 43 -62 61 -97z"/>
 <path d="M4410 2458 c-11 -12 -25 -38 -31 -57 -20 -68 -22 -300 -5 -551 9 -135 17 -263 19 -285 l2 -40 64 0 c60 0 65 2 93 35 l30 35 -6 165 c-3 91 -9 216 -12 278 -8 123 1 141 35 73 32 -62 74 -91 131 -91 59 0 70 14 70 88 0 93 -54 196 -149 285 -90 84 -196 113 -241 65z m111 -22 c46 -19 49 -24 37 -52 -8 -17 -7 -39 2 -83 15 -72 15 -76 -8 -76 -25 0 -26 -48 -12 -347 15 -290 14 -295 -55 -318 -56 -18 -65 -10 -65 62 0 35 -7 149 -15 253 -23 301 -17 474 20 546 18 33 43 37 96 15z m159 -201 c55 -108 50 -207 -6 -142 -20 24 -68 154 -88 242 l-7 30 34 -34 c19 -18 49 -62 67 -96z m86 -102 c3 -24 3 -51 -2 -60 -5 -12 -10 3 -15 47 -3 36 -10 74 -13 85 -5 13 -2 11 8 -5 8 -14 18 -44 22 -67z"/>
 </g>
<g id="layer2" fill="#242424" stroke="none">
 <path d="M527 4392 c-16 -17 -15 -30 13 -190 17 -95 48 -252 69 -350 22 -97 43 -193 47 -212 3 -19 10 -41 14 -50 5 -8 15 -40 23 -70 42 -148 48 -170 57 -175 6 -4 10 -13 10 -22 0 -24 21 -71 111 -244 49 -95 146 -199 214 -229 40 -18 62 -22 120 -18 113 8 176 49 198 132 16 60 24 441 9 459 -15 19 -22 89 -11 103 17 21 22 141 9 219 -10 57 -10 79 -2 87 7 7 12 39 12 72 0 79 17 196 31 212 14 17 4 71 -18 96 -22 25 -112 67 -158 75 -48 8 -104 -19 -133 -63 -37 -57 -55 -170 -56 -351 l-1 -163 -32 0 c-17 0 -34 -3 -37 -7 -2 -5 -48 -8 -103 -8 l-98 0 -17 140 c-34 276 -59 437 -73 464 -17 34 -76 80 -124 97 -48 17 -55 17 -74 -4z m572 -934 c35 -396 22 -481 -66 -433 -28 15 -46 38 -78 101 -23 45 -45 94 -48 110 -3 16 -10 47 -16 69 -13 45 -51 242 -51 261 0 11 113 28 216 33 l31 1 12 -142z"/>
 <path d="M3775 4345 c-27 -8 -54 -22 -60 -31 -5 -9 -26 -33 -46 -54 -28 -30 -39 -53 -52 -114 -9 -42 -17 -90 -17 -106 0 -17 -4 -30 -9 -30 -5 0 -32 29 -61 65 -163 204 -376 309 -514 251 -36 -15 -101 -77 -121 -116 -20 -39 -48 -178 -41 -205 3 -13 2 -27 -4 -30 -13 -8 -14 -377 -1 -391 5 -5 6 -40 2 -79 -6 -70 -6 -70 -23 -45 -10 13 -18 30 -18 36 0 20 -148 193 -179 209 -16 8 -31 18 -33 22 -1 5 -26 26 -55 47 -35 27 -49 43 -43 51 17 20 22 90 10 134 -7 27 -8 47 -2 54 5 7 13 44 16 82 4 39 8 88 11 109 3 33 0 43 -26 67 -35 33 -117 58 -176 55 -35 -3 -50 -11 -87 -48 -48 -49 -68 -109 -71 -221 -1 -31 -5 -60 -9 -64 -9 -10 -7 -321 3 -327 4 -3 6 -39 3 -81 -3 -46 0 -80 6 -88 13 -15 4 -60 -9 -51 -5 3 -31 38 -56 77 -51 78 -195 227 -244 253 l-31 16 6 176 c3 97 8 199 10 226 4 44 2 51 -27 77 -52 48 -179 70 -233 41 -39 -21 -80 -110 -93 -205 -7 -48 -10 -103 -7 -121 4 -20 2 -37 -4 -41 -11 -7 -15 -197 -4 -208 3 -3 7 -76 9 -162 2 -98 8 -162 15 -170 7 -8 9 -19 5 -25 -9 -15 15 -340 27 -366 6 -12 7 -31 3 -43 -3 -12 -3 -46 1 -77 7 -60 23 -76 56 -55 15 9 23 9 33 1 20 -17 108 -3 147 23 45 30 90 121 84 167 -3 19 -2 64 2 99 l7 64 40 -54 c53 -71 118 -107 188 -104 29 1 62 7 74 13 12 7 24 12 27 12 3 0 6 -44 6 -98 0 -86 3 -101 20 -117 18 -16 23 -17 45 -5 20 10 28 11 37 2 19 -19 59 -14 124 17 85 40 107 85 114 231 l5 105 19 -32 c11 -17 30 -36 42 -42 13 -5 30 -24 38 -40 9 -16 26 -33 38 -37 43 -13 131 -13 158 1 36 19 49 4 43 -49 -7 -57 26 -134 70 -162 40 -27 121 -47 157 -39 16 3 31 1 35 -4 8 -14 72 -14 81 0 3 6 17 8 32 4 14 -3 94 1 177 11 114 13 155 22 171 36 20 18 21 18 39 -2 10 -11 22 -17 27 -14 5 3 15 1 22 -5 21 -17 141 3 183 31 19 13 46 46 61 73 26 48 27 54 25 198 -2 82 -6 154 -10 160 -4 7 -6 42 -4 79 1 37 -1 73 -5 80 -4 7 -7 52 -5 101 1 48 -1 93 -6 100 -10 13 -2 382 9 392 3 3 14 2 25 -3 10 -5 32 -15 48 -22 17 -7 38 -17 49 -22 70 -37 197 -44 252 -15 38 20 94 114 94 157 0 37 -25 90 -43 90 -6 1 -30 9 -52 20 -22 11 -46 19 -53 20 -7 0 -20 4 -30 9 -28 16 -173 60 -247 76 -85 18 -153 18 -220 0z m-455 -211 c41 -21 123 -93 142 -125 10 -16 22 -29 27 -29 5 0 23 -24 40 -54 17 -29 38 -59 46 -66 12 -10 15 -37 15 -126 0 -62 4 -115 9 -118 5 -3 7 -23 4 -44 -3 -20 5 -152 16 -292 24 -290 25 -334 11 -325 -5 3 -10 16 -10 27 0 12 -10 42 -21 66 -30 60 -59 71 -179 65 -52 -3 -117 -6 -145 -7 l-50 -1 -3 50 c-1 28 -5 57 -9 65 -3 8 -5 46 -4 83 2 39 -2 73 -8 81 -8 9 -8 22 -2 39 8 20 21 27 61 36 28 6 57 11 64 11 7 0 21 9 31 20 14 15 15 23 6 34 -6 8 -10 20 -9 27 2 11 -13 13 -73 11 -73 -3 -77 -2 -83 20 -8 25 -10 415 -2 439 2 8 7 34 10 59 8 75 45 92 116 54z m-1400 -565 c7 -15 21 -36 32 -46 11 -10 36 -52 55 -93 19 -41 41 -87 49 -102 8 -15 17 -63 21 -107 5 -70 4 -81 -11 -87 -26 -10 -62 31 -106 121 -37 76 -49 113 -71 214 -5 23 -13 59 -18 80 -5 20 -12 49 -15 64 l-7 28 30 -22 c16 -12 35 -34 41 -50z m766 -144 c50 -98 87 -224 78 -260 -7 -29 -29 -38 -55 -25 -21 12 -69 82 -69 102 0 7 -11 36 -25 63 -13 28 -25 58 -25 67 0 9 -12 59 -26 110 -14 51 -28 107 -31 123 -4 28 -1 27 52 -30 34 -37 74 -95 101 -150z"/>
 <path d="M4615 4345 c-27 -8 -54 -22 -60 -31 -5 -9 -26 -33 -46 -54 -29 -31 -39 -53 -53 -120 -10 -44 -15 -92 -12 -105 3 -13 2 -27 -4 -30 -13 -8 -14 -372 -1 -379 5 -3 6 -35 4 -70 -3 -36 -2 -73 2 -83 5 -10 7 -43 6 -74 -2 -31 2 -59 7 -63 5 -3 7 -26 5 -50 -3 -25 -2 -53 2 -63 5 -10 7 -41 6 -70 -2 -29 1 -58 5 -64 4 -7 6 -62 5 -122 -2 -91 0 -112 15 -128 9 -10 21 -16 26 -13 5 3 15 1 22 -5 22 -19 142 3 186 34 56 39 90 121 90 218 0 42 -4 78 -8 81 -5 3 -7 30 -4 60 2 30 1 63 -3 73 -5 10 -7 48 -6 85 2 37 -1 73 -5 80 -4 7 -7 52 -5 101 1 48 -1 93 -6 100 -5 7 -7 96 -5 198 l4 186 38 -11 c21 -6 42 -15 46 -19 4 -4 14 -7 23 -7 9 0 27 -6 41 -13 74 -39 178 -45 237 -14 37 20 82 97 94 162 6 33 4 44 -14 63 -11 12 -25 22 -31 22 -6 1 -29 9 -51 20 -22 11 -46 19 -53 20 -7 0 -20 4 -30 9 -28 16 -173 60 -247 76 -85 18 -153 18 -220 0z"/>
 <path d="M118 4319 c-24 -13 -63 -88 -79 -151 -13 -51 -20 -460 -11 -668 6 -139 24 -375 29 -390 3 -8 5 -67 3 -130 -1 -106 0 -117 19 -134 19 -17 24 -18 46 -6 20 11 27 11 40 0 19 -16 63 -9 128 19 43 18 51 28 78 86 29 60 31 72 27 155 -1 50 -1 90 2 90 3 0 13 -12 22 -27 22 -37 87 -102 118 -118 29 -14 137 -17 162 -3 10 5 28 28 39 51 19 36 21 52 15 129 -6 86 -24 149 -56 198 -10 14 -37 59 -61 100 -46 77 -160 200 -228 246 -36 23 -40 31 -47 80 -3 30 -3 78 0 105 5 34 3 56 -5 65 -9 11 -9 18 -1 26 7 7 12 28 12 48 0 19 4 52 9 73 6 23 5 52 -1 73 -8 29 -18 39 -66 61 -60 27 -164 39 -194 22z m360 -799 c20 -30 53 -87 72 -125 57 -111 77 -265 35 -265 -22 0 -60 41 -82 90 -57 126 -65 146 -70 179 -3 20 -9 41 -14 46 -4 6 -13 39 -19 75 -7 36 -17 78 -22 95 l-8 29 36 -34 c20 -19 52 -60 72 -90z"/>
 <path d="M5568 4296 c-46 -12 -105 -48 -151 -90 -28 -26 -107 -141 -107 -156 0 -5 -4 -18 -10 -28 -50 -90 -64 -337 -30 -533 11 -65 24 -129 29 -141 5 -13 26 -77 47 -143 20 -66 47 -143 60 -170 12 -28 26 -64 30 -80 4 -17 10 -34 14 -40 5 -5 15 -34 24 -64 21 -72 49 -101 95 -101 62 0 111 20 157 63 42 40 45 46 51 109 l6 66 37 6 c57 9 122 40 152 72 42 46 92 142 118 229 21 71 24 100 24 260 0 154 -3 193 -23 270 -25 100 -23 97 -81 215 -63 128 -130 206 -210 242 -55 25 -165 31 -232 14z m265 -228 l47 -43 -42 -52 c-24 -28 -55 -71 -70 -95 -61 -96 -84 -140 -146 -278 l-20 -45 -7 73 c-4 40 -12 75 -16 78 -12 7 -12 47 0 59 4 6 13 49 20 97 20 151 82 240 171 247 9 0 37 -18 63 -41z m125 -175 c6 -15 12 -33 12 -40 0 -7 4 -21 9 -31 5 -9 14 -44 21 -77 6 -33 15 -76 19 -96 19 -87 1 -315 -30 -384 -5 -11 -13 -32 -18 -47 -14 -37 -75 -81 -112 -80 -57 1 -100 81 -101 185 -1 37 -5 70 -9 73 -5 3 -4 13 1 22 5 9 17 64 25 122 9 57 20 109 24 115 5 5 14 28 20 50 26 85 99 215 120 215 3 0 12 -12 19 -27z"/>
 <path d="M5240 2935 c-7 -8 -16 -13 -20 -10 -15 9 -46 -49 -60 -110 -8 -33 -14 -96 -15 -140 -1 -44 -5 -87 -8 -95 -4 -8 -8 -69 -9 -135 l-3 -120 -20 33 c-42 71 -172 106 -228 61 -28 -22 -52 -88 -42 -119 3 -10 1 -21 -5 -25 -13 -8 -13 -52 1 -60 6 -4 7 -19 4 -35 -10 -43 13 -181 33 -203 13 -15 25 -17 56 -13 88 15 110 53 100 176 -4 47 -13 94 -20 105 -11 17 -10 23 6 43 10 12 22 22 27 22 27 0 83 -97 83 -143 0 -14 4 -28 9 -31 5 -3 7 -23 4 -45 -5 -34 -2 -41 28 -64 30 -22 39 -24 77 -17 23 4 51 15 62 25 29 27 50 101 50 183 0 69 1 74 19 69 12 -3 26 2 35 12 14 15 14 19 0 40 -14 20 -14 30 -3 89 7 37 13 134 13 217 0 141 -1 154 -26 207 -21 45 -35 61 -67 77 -48 25 -64 26 -81 6z"/>
 <path d="M3279 2634 c-53 -27 -68 -128 -45 -301 27 -203 23 -215 -54 -204 -47 6 -44 3 -136 139 -62 90 -191 182 -282 202 -76 16 -99 10 -152 -37 -34 -31 -41 -42 -36 -64 3 -16 0 -32 -7 -37 -9 -8 -25 7 -62 56 -42 56 -62 73 -123 104 -96 49 -123 49 -171 -1 -34 -35 -40 -49 -50 -116 -15 -99 -14 -188 1 -203 10 -10 10 -17 0 -32 -15 -25 -17 -226 -2 -235 25 -15 -13 -35 -67 -35 -39 0 -55 -4 -60 -15 -8 -23 26 -55 59 -55 45 0 68 -17 68 -49 0 -15 3 -31 7 -35 4 -4 6 -43 4 -87 -2 -65 0 -84 15 -100 22 -24 67 -24 120 0 31 14 45 28 57 60 19 46 23 136 7 146 -25 15 13 35 67 35 37 0 55 4 59 14 11 29 -13 50 -68 61 -51 10 -53 11 -56 45 -1 19 -8 45 -14 57 -6 13 -7 33 -3 50 15 54 17 197 4 236 -9 29 -10 40 -1 49 7 7 12 26 12 44 0 17 6 37 14 43 31 26 80 -26 171 -180 54 -92 56 -94 127 -127 90 -42 155 -51 207 -27 40 18 61 49 61 91 0 34 -16 62 -57 101 -32 31 -47 38 -98 45 -41 6 -25 88 18 88 12 0 39 -14 60 -30 37 -27 142 -127 180 -170 10 -12 22 -18 27 -15 5 3 7 -10 5 -32 -16 -124 -17 -181 -5 -188 70 -43 187 0 163 61 -9 23 22 44 65 44 51 0 124 36 145 71 21 38 21 68 1 222 -15 117 -13 187 6 187 5 0 12 -4 15 -10 3 -5 15 -15 26 -20 16 -9 21 -7 28 12 11 30 -42 107 -92 131 -47 24 -124 29 -158 11z m-437 -437 c25 -21 32 -35 29 -64 -2 -21 -36 -15 -58 10 -54 60 -31 104 29 54z"/>
 <path d="M1758 2610 c-45 -13 -78 -43 -105 -95 -33 -61 -37 -166 -10 -229 16 -37 16 -40 -5 -77 -24 -42 -26 -43 -99 -12 -28 12 -39 24 -48 53 -27 91 -129 180 -205 180 -53 -1 -118 -30 -143 -66 -43 -62 -54 -167 -25 -249 48 -139 171 -207 280 -156 45 21 92 74 92 104 0 30 24 48 56 41 30 -6 30 -6 30 -68 -1 -74 17 -107 74 -136 46 -24 90 -14 90 20 0 11 16 53 35 95 34 73 36 74 62 64 33 -12 49 -7 56 20 3 15 -1 25 -14 31 -10 6 -19 16 -19 22 0 6 31 59 68 117 81 124 102 188 83 251 -17 58 -72 91 -160 95 -36 1 -78 -1 -93 -5z m40 -141 c3 -39 -2 -52 -35 -97 -21 -28 -41 -48 -45 -44 -11 11 -11 95 0 122 14 34 51 72 65 67 7 -2 13 -24 15 -48z m-406 -175 c40 -52 43 -67 12 -72 -10 -2 -28 -7 -39 -12 -52 -22 -54 -21 -61 25 -10 68 10 121 41 112 6 -2 27 -26 47 -53z m28 -183 c0 -5 -7 -11 -15 -15 -15 -5 -20 5 -8 17 9 10 23 9 23 -2z"/>
 <path d="M3739 2610 c-61 -18 -103 -69 -134 -165 -6 -19 -8 -19 -28 7 -17 21 -26 25 -39 17 -19 -10 -21 -3 26 -110 9 -20 23 -64 32 -99 15 -61 15 -62 -9 -113 -14 -29 -29 -69 -32 -90 -14 -73 43 -166 112 -183 32 -8 48 10 57 64 5 31 32 95 59 139 6 9 15 9 34 2 23 -8 30 -7 43 11 11 15 18 18 27 9 8 -8 13 -8 17 0 4 6 5 12 2 12 -14 3 -23 6 -49 17 -32 14 -31 17 33 112 56 82 110 196 110 229 0 46 -30 99 -69 122 -39 23 -145 34 -192 19z m41 -137 c0 -40 -6 -56 -35 -92 -19 -24 -35 -48 -35 -53 0 -5 -4 -6 -10 -3 -12 8 -13 96 -1 127 12 31 48 68 66 68 11 0 15 -12 15 -47z"/>
 <path d="M728 2539 c-40 -20 -50 -43 -69 -158 -12 -73 -12 -298 0 -306 6 -3 7 -35 4 -74 -3 -41 -2 -71 4 -74 6 -4 8 -26 6 -51 -3 -25 -2 -53 2 -63 4 -10 7 -48 6 -84 -2 -40 2 -69 8 -73 6 -4 11 -22 11 -40 0 -40 12 -52 61 -61 42 -8 69 4 111 46 35 34 48 68 48 122 l0 41 28 -27 c29 -28 90 -57 120 -57 11 0 25 7 32 15 7 8 16 12 21 10 12 -8 39 49 39 82 0 105 -103 287 -205 364 l-53 40 -4 77 c-3 42 -1 106 5 141 11 74 1 103 -40 124 -48 24 -95 26 -135 6z m230 -523 c18 -24 32 -49 32 -54 0 -5 9 -21 20 -35 26 -33 47 -144 31 -160 -18 -18 -48 20 -72 92 -12 36 -25 71 -29 76 -4 6 -10 29 -14 52 -3 23 -9 48 -12 57 -12 31 13 15 44 -28z"/>
 <path d="M4418 2474 c-30 -16 -44 -53 -59 -159 -10 -68 -12 -279 -3 -288 3 -3 7 -45 9 -94 7 -249 18 -388 33 -405 35 -41 152 -3 177 56 16 38 21 181 6 190 -4 3 -6 39 -3 81 3 43 0 80 -5 87 -6 8 -8 48 -5 97 l5 83 51 -56 c64 -69 101 -75 155 -25 31 28 33 34 29 77 -8 76 -63 190 -122 250 -55 57 -171 122 -215 122 -14 -1 -38 -7 -53 -16z m249 -234 c43 -96 56 -141 44 -153 -7 -7 -14 -7 -20 -2 -23 23 -63 112 -72 159 -5 28 -12 60 -15 71 l-7 20 23 -20 c12 -11 33 -45 47 -75z"/>
 <path d="M5411 2279 c-9 -24 4 -53 19 -44 15 9 18 44 4 56 -11 9 -16 6 -23 -12z"/>
 <path d="M1988 2132 c-31 -4 -67 -49 -45 -58 7 -2 31 1 53 8 29 10 38 18 36 32 -2 11 1 15 7 11 6 -3 11 -2 11 4 0 5 -8 9 -17 8 -10 -1 -30 -3 -45 -5z"/>
 <path d="M3926 2106 c-18 -28 -6 -43 22 -30 16 7 24 10 37 13 11 2 -16 41 -29 41 -8 0 -21 -11 -30 -24z"/>
 </g>

</svg>